<svg xmlns="http://www.w3.org/2000/svg" viewBox="0 0 1080 1920" width="1080" height="1920">
  <defs>
    <!-- Intense orange background glow for the payoff moment -->
    <radialGradient id="bg-glow-claim" cx="50%" cy="45%" r="55%">
      <stop offset="0%" stop-color="#f97316" stop-opacity="0.22"/>
      <stop offset="60%" stop-color="#f97316" stop-opacity="0.06"/>
      <stop offset="100%" stop-color="#0a0a0a" stop-opacity="0"/>
    </radialGradient>
    <radialGradient id="reward-halo" cx="50%" cy="50%" r="50%">
      <stop offset="0%" stop-color="#f97316" stop-opacity="0.4"/>
      <stop offset="100%" stop-color="#f97316" stop-opacity="0"/>
    </radialGradient>

    <filter id="strong-glow">
      <feGaussianBlur stdDeviation="20" result="blur"/>
      <feComposite in="SourceGraphic" in2="blur" operator="over"/>
    </filter>
    <filter id="claim-glow">
      <feGaussianBlur stdDeviation="28" result="blur"/>
      <feComposite in="SourceGraphic" in2="blur" operator="over"/>
    </filter>
    <filter id="number-glow">
      <feGaussianBlur stdDeviation="16" result="blur"/>
      <feComposite in="SourceGraphic" in2="blur" operator="over"/>
    </filter>
  </defs>

  <!-- ── Background ── -->
  <rect width="1080" height="1920" fill="#0a0a0a"/>
  <rect width="1080" height="1920" fill="url(#bg-glow-claim)"/>

  <!-- Confetti pieces -->
  <rect x="120" y="280" width="20" height="20" rx="3" fill="#f97316" opacity="0.9" transform="rotate(25, 130, 290)"/>
  <rect x="240" y="200" width="16" height="16" rx="2" fill="#22c55e" opacity="0.8" transform="rotate(-15, 248, 208)"/>
  <rect x="380" y="240" width="14" height="14" rx="2" fill="#3b82f6" opacity="0.85" transform="rotate(40, 387, 247)"/>
  <rect x="680" y="180" width="18" height="18" rx="3" fill="#fbbf24" opacity="0.9" transform="rotate(-30, 689, 189)"/>
  <rect x="820" y="260" width="12" height="12" rx="2" fill="#f97316" opacity="0.8" transform="rotate(20, 826, 266)"/>
  <rect x="940" y="210" width="16" height="16" rx="2" fill="#22c55e" opacity="0.85" transform="rotate(-45, 948, 218)"/>
  <rect x="160" y="440" width="10" height="10" rx="1.5" fill="#fbbf24" opacity="0.7" transform="rotate(60, 165, 445)"/>
  <rect x="860" y="380" width="14" height="14" rx="2" fill="#3b82f6" opacity="0.75" transform="rotate(-20, 867, 387)"/>
  <rect x="60" y="560" width="10" height="10" rx="1.5" fill="#f97316" opacity="0.6" transform="rotate(35, 65, 565)"/>
  <rect x="1000" y="500" width="12" height="12" rx="2" fill="#22c55e" opacity="0.7" transform="rotate(-55, 1006, 506)"/>
  <rect x="440" y="160" width="8" height="22" rx="2" fill="#f97316" opacity="0.75" transform="rotate(15, 444, 171)"/>
  <rect x="600" y="140" width="10" height="10" rx="1.5" fill="#fbbf24" opacity="0.8" transform="rotate(-35, 605, 145)"/>
  <rect x="760" y="320" width="8" height="20" rx="2" fill="#3b82f6" opacity="0.65" transform="rotate(50, 764, 330)"/>
  <rect x="310" y="400" width="12" height="12" rx="2" fill="#22c55e" opacity="0.7" transform="rotate(-25, 316, 406)"/>

  <!-- ── Status bar ── -->
  <text x="72" y="84" font-family="system-ui, -apple-system, sans-serif" font-size="40" font-weight="600" fill="#f5f5f5">9:41</text>
  <rect x="846" y="54" width="14" height="30" rx="3" fill="#f5f5f5"/>
  <rect x="866" y="46" width="14" height="38" rx="3" fill="#f5f5f5"/>
  <rect x="886" y="38" width="14" height="46" rx="3" fill="#f5f5f5"/>
  <rect x="906" y="30" width="14" height="54" rx="3" fill="#f5f5f5"/>
  <path d="M944 66 Q960 50 976 66" stroke="#f5f5f5" stroke-width="6" fill="none" stroke-linecap="round"/>
  <path d="M952 76 Q960 68 968 76" stroke="#f5f5f5" stroke-width="6" fill="none" stroke-linecap="round"/>
  <circle cx="960" cy="86" r="6" fill="#f5f5f5"/>
  <rect x="996" y="42" width="60" height="30" rx="6" fill="none" stroke="#f5f5f5" stroke-width="3"/>
  <rect x="1056" y="50" width="8" height="14" rx="2" fill="#f5f5f5"/>
  <rect x="999" y="45" width="48" height="24" rx="4" fill="#f5f5f5"/>
  <rect x="396" y="24" width="288" height="60" rx="30" fill="#000000"/>

  <!-- ── HEADER ── -->
  <g transform="translate(60, 136)">
    <rect width="80" height="80" rx="18" fill="#111111"/>
    <circle cx="40" cy="38" r="30" fill="#f97316"/>
    <path d="M40 18 C50 28 58 37 58 46 C58 55 51 62 40 62 C29 62 22 55 22 46 C22 37 30 28 40 18Z" fill="#ffffff" opacity="0.95"/>
    <circle cx="33" cy="44" r="7" fill="#ffffff" opacity="0.4"/>
  </g>
  <text x="160" y="186" font-family="system-ui, -apple-system, sans-serif" font-size="44" font-weight="800" fill="#f5f5f5" letter-spacing="-1">DailyDrop</text>
  <rect x="742" y="148" width="276" height="56" rx="28" fill="rgba(34,197,94,0.15)" stroke="rgba(34,197,94,0.35)" stroke-width="2"/>
  <text x="880" y="183" font-family="system-ui, -apple-system, sans-serif" font-size="28" font-weight="700" fill="#22c55e" text-anchor="middle">✅ MiniPay</text>

  <!-- ── HERO ── -->
  <text x="60" y="334" font-family="system-ui, -apple-system, sans-serif" font-size="76" font-weight="800" fill="#f5f5f5" letter-spacing="-2">Check in daily.</text>
  <text x="60" y="432" font-family="system-ui, -apple-system, sans-serif" font-size="76" font-weight="800" fill="#f97316" letter-spacing="-2">Earn DROP.</text>
  <text x="60" y="510" font-family="system-ui, -apple-system, sans-serif" font-size="32" fill="#888888">7-day streak = 10 DROP tokens. On Celo &amp; Base.</text>

  <!-- Protocol stats (small, compressed) -->
  <rect x="60" y="556" width="228" height="96" rx="16" fill="#111111" stroke="#222222" stroke-width="2"/>
  <text x="174" y="604" font-family="system-ui, -apple-system, sans-serif" font-size="36" font-weight="800" fill="#f97316" text-anchor="middle">1,247</text>
  <text x="174" y="634" font-family="system-ui, -apple-system, sans-serif" font-size="20" fill="#888888" text-anchor="middle" letter-spacing="1">CHECK-INS</text>
  <rect x="304" y="556" width="228" height="96" rx="16" fill="#111111" stroke="#222222" stroke-width="2"/>
  <text x="418" y="604" font-family="system-ui, -apple-system, sans-serif" font-size="36" font-weight="800" fill="#f97316" text-anchor="middle">389</text>
  <text x="418" y="634" font-family="system-ui, -apple-system, sans-serif" font-size="20" fill="#888888" text-anchor="middle" letter-spacing="1">WALLETS</text>
  <rect x="548" y="556" width="228" height="96" rx="16" fill="#111111" stroke="#222222" stroke-width="2"/>
  <text x="662" y="604" font-family="system-ui, -apple-system, sans-serif" font-size="36" font-weight="800" fill="#f97316" text-anchor="middle">241</text>
  <text x="662" y="634" font-family="system-ui, -apple-system, sans-serif" font-size="20" fill="#888888" text-anchor="middle" letter-spacing="1">CELO</text>
  <rect x="792" y="556" width="228" height="96" rx="16" fill="#111111" stroke="#222222" stroke-width="2"/>
  <text x="906" y="604" font-family="system-ui, -apple-system, sans-serif" font-size="36" font-weight="800" fill="#f97316" text-anchor="middle">148</text>
  <text x="906" y="634" font-family="system-ui, -apple-system, sans-serif" font-size="20" fill="#888888" text-anchor="middle" letter-spacing="1">BASE</text>

  <!-- ── APP CARD (the prize moment) ── -->
  <rect x="60" y="692" width="960" height="920" rx="32" fill="#111111" stroke="#f97316" stroke-width="2" stroke-opacity="0.4"/>

  <!-- 7/7 streak with special glow -->
  <text x="140" y="820" font-family="system-ui, -apple-system, sans-serif" font-size="72" fill="#f5f5f5">🔥</text>

  <!-- Huge number 7 with intense glow -->
  <text x="228" y="870" font-family="'Courier New', monospace" font-size="200" font-weight="700" fill="#f97316" filter="url(#number-glow)" opacity="0.4">7</text>
  <text x="228" y="870" font-family="'Courier New', monospace" font-size="200" font-weight="700" fill="#f97316">7</text>

  <text x="440" y="800" font-family="system-ui, -apple-system, sans-serif" font-size="40" fill="#888888" font-weight="600">day streak</text>

  <!-- "COMPLETE!" badge -->
  <rect x="420" y="814" width="224" height="56" rx="28" fill="rgba(34,197,94,0.15)" stroke="rgba(34,197,94,0.45)" stroke-width="2"/>
  <text x="532" y="849" font-family="system-ui, -apple-system, sans-serif" font-size="28" font-weight="700" fill="#22c55e" text-anchor="middle">✓ COMPLETE!</text>

  <!-- ── ALL 7 DOTS FILLED ── -->
  <g transform="translate(100, 912)">
    <circle cx="52" cy="52" r="42" fill="rgba(249,115,22,0.2)" stroke="#f97316" stroke-width="3"/>
    <text x="52" y="61" font-family="system-ui, -apple-system, sans-serif" font-size="28" font-weight="700" fill="#f97316" text-anchor="middle">✓</text>
    <circle cx="168" cy="52" r="42" fill="rgba(249,115,22,0.2)" stroke="#f97316" stroke-width="3"/>
    <text x="168" y="61" font-family="system-ui, -apple-system, sans-serif" font-size="28" font-weight="700" fill="#f97316" text-anchor="middle">✓</text>
    <circle cx="284" cy="52" r="42" fill="rgba(249,115,22,0.2)" stroke="#f97316" stroke-width="3"/>
    <text x="284" y="61" font-family="system-ui, -apple-system, sans-serif" font-size="28" font-weight="700" fill="#f97316" text-anchor="middle">✓</text>
    <circle cx="400" cy="52" r="42" fill="rgba(249,115,22,0.2)" stroke="#f97316" stroke-width="3"/>
    <text x="400" y="61" font-family="system-ui, -apple-system, sans-serif" font-size="28" font-weight="700" fill="#f97316" text-anchor="middle">✓</text>
    <circle cx="516" cy="52" r="42" fill="rgba(249,115,22,0.2)" stroke="#f97316" stroke-width="3"/>
    <text x="516" y="61" font-family="system-ui, -apple-system, sans-serif" font-size="28" font-weight="700" fill="#f97316" text-anchor="middle">✓</text>
    <circle cx="632" cy="52" r="42" fill="rgba(249,115,22,0.2)" stroke="#f97316" stroke-width="3"/>
    <text x="632" y="61" font-family="system-ui, -apple-system, sans-serif" font-size="28" font-weight="700" fill="#f97316" text-anchor="middle">✓</text>
    <!-- Day 7 - the one that completes it - extra glow -->
    <circle cx="748" cy="52" r="58" fill="none" stroke="#f97316" stroke-width="2" opacity="0.25"/>
    <circle cx="748" cy="52" r="48" fill="rgba(249,115,22,0.3)" stroke="#f97316" stroke-width="3"/>
    <text x="748" y="61" font-family="system-ui, -apple-system, sans-serif" font-size="28" font-weight="700" fill="#f97316" text-anchor="middle">✓</text>
  </g>

  <!-- Ready to claim message -->
  <text x="540" y="1072" font-family="system-ui, -apple-system, sans-serif" font-size="36" fill="#22c55e" font-weight="700" text-anchor="middle">🎁 Ready to claim!</text>

  <!-- Stats row -->
  <rect x="100" y="1108" width="272" height="120" rx="20" fill="#1a1a1a" stroke="#222222" stroke-width="2"/>
  <text x="236" y="1156" font-family="'Courier New', monospace" font-size="40" font-weight="700" fill="#f5f5f5" text-anchor="middle">49</text>
  <text x="236" y="1188" font-family="system-ui, -apple-system, sans-serif" font-size="22" fill="#888888" text-anchor="middle" letter-spacing="1">TOTAL CHECK-INS</text>
  <rect x="404" y="1108" width="272" height="120" rx="20" fill="#1a1a1a" stroke="#222222" stroke-width="2"/>
  <text x="540" y="1156" font-family="'Courier New', monospace" font-size="40" font-weight="700" fill="#f5f5f5" text-anchor="middle">40.00</text>
  <text x="540" y="1188" font-family="system-ui, -apple-system, sans-serif" font-size="22" fill="#888888" text-anchor="middle" letter-spacing="1">DROP BALANCE</text>
  <rect x="708" y="1108" width="272" height="120" rx="20" fill="#1a1a1a" stroke="#222222" stroke-width="2"/>
  <text x="844" y="1156" font-family="'Courier New', monospace" font-size="40" font-weight="700" fill="#22c55e" text-anchor="middle">Ready!</text>
  <text x="844" y="1188" font-family="system-ui, -apple-system, sans-serif" font-size="22" fill="#888888" text-anchor="middle" letter-spacing="1">NEXT CHECK-IN</text>

  <!-- ── CHECK-IN button (disabled — already done) ── -->
  <rect x="100" y="1264" width="880" height="108" rx="20" fill="#1a1a1a" stroke="#222222" stroke-width="2"/>
  <text x="540" y="1328" font-family="system-ui, -apple-system, sans-serif" font-size="36" fill="#888888" text-anchor="middle">✓ Already checked in today</text>

  <!-- ── CLAIM BUTTON — the hero element ── -->
  <!-- Outer glow ring -->
  <rect x="100" y="1400" width="880" height="120" rx="24" fill="#f97316" filter="url(#claim-glow)" opacity="0.5"/>
  <!-- Pulsing ring -->
  <rect x="88" y="1388" width="904" height="144" rx="30" fill="none" stroke="#f97316" stroke-width="3" opacity="0.3"/>
  <!-- Main button -->
  <rect x="100" y="1400" width="880" height="120" rx="24" fill="transparent" stroke="#f97316" stroke-width="3"/>
  <text x="540" y="1472" font-family="system-ui, -apple-system, sans-serif" font-size="44" font-weight="700" fill="#f97316" text-anchor="middle">🎁 Claim 10 DROP on Celo</text>

  <!-- Success message preview -->
  <rect x="100" y="1556" width="880" height="100" rx="20" fill="rgba(34,197,94,0.08)" stroke="rgba(34,197,94,0.2)" stroke-width="2"/>
  <text x="540" y="1614" font-family="system-ui, -apple-system, sans-serif" font-size="32" fill="#22c55e" text-anchor="middle">⭐ +4 DROP bonus for sharing on Farcaster</text>

  <!-- Share on Farcaster -->
  <rect x="100" y="1680" width="880" height="80" rx="16" fill="rgba(139,92,246,0.1)" stroke="rgba(139,92,246,0.3)" stroke-width="2"/>
  <text x="540" y="1728" font-family="system-ui, -apple-system, sans-serif" font-size="30" font-weight="600" fill="#a78bfa" text-anchor="middle">🟣 Share your streak on Farcaster</text>

  <!-- ── FOOTER ── -->
  <text x="540" y="1884" font-family="system-ui, -apple-system, sans-serif" font-size="26" fill="#444444" text-anchor="middle">Built on Celo &amp; Base · MiniPay &amp; Farcaster</text>
  <rect x="424" y="1892" width="232" height="10" rx="5" fill="#333333"/>
</svg>
